  <svg x="0px" y="0px" viewBox="0 0 600 600">
    <path
      fill="fill"
      d="M200.7,476c0,2.4-2.8,4.4-6.3,4.4c-4,0.4-6.8-1.6-6.8-4.4c0-2.4,2.8-4.4,6.3-4.4C197.5,471.3,200.7,473.3,200.7,476z
M163.1,470.6c-0.8,2.4,1.6,5.2,5.2,5.9c3.1,1.2,6.8,0,7.5-2.4s-1.6-5.2-5.2-6.3C167.4,467,163.9,468.2,163.1,470.6L163.1,470.6z
M216.5,468.5c-3.5,0.9-5.9,3.1-5.6,5.9c0.4,2.4,3.5,4,7.1,3.1s5.9-3.1,5.6-5.6S220,468.2,216.5,468.5z M296.1,5
C128.4,5,0,132.4,0,300.2c0,134.1,84.4,249,205,289.4c15.5,2.8,20.9-6.8,20.9-14.6c0-7.5-0.4-48.9-0.4-74.3c0,0-84.7,18.1-102.4-36
c0,0-13.8-35.2-33.6-44.3c0,0-27.7-19,1.9-18.6c0,0,30.1,2.4,46.7,31.2c26.5,46.7,70.9,33.3,88.2,25.3c2.8-19.4,10.6-32.8,19.4-40.8
c-67.6-7.5-135.9-17.3-135.9-133.7c0-33.3,9.2-50,28.6-71.2c-3.1-7.9-13.4-40.3,3.1-82.1C166.8,122.5,225,163,225,163
c49.7-13.7,102.2-13.7,151.9,0c0,0,58.2-40.6,83.5-32.7c16.6,42,6.3,74.3,3.1,82.1c19.4,21.4,31.2,38.1,31.2,71.2
c0,116.7-71.2,126-138.9,133.7c11.1,9.6,20.6,27.7,20.6,56.1c0,40.8-0.4,91.2-0.4,101.1c0,7.9,5.6,17.4,20.9,14.6
c121-40.2,203-155,203-289.1C600,132.4,463.9,5,296.1,5z M117.6,422.2c-1.6,1.2-1.2,4,0.8,6.3c1.9,1.9,4.7,2.8,6.3,1.2
c1.6-1.2,1.2-4-0.8-6.3C121.9,421.5,119.2,420.6,117.6,422.2z M104.5,412.4c-0.8,1.6,0.4,3.5,2.8,4.7c1.9,1.2,4.3,0.8,5.2-0.9
s-0.4-3.5-2.8-4.7C107.3,410.9,105.4,411.2,104.5,412.4z M143.7,455.5c-1.9,1.6-1.2,5.2,1.6,7.5c2.8,2.8,6.3,3.1,7.9,1.2
c1.6-1.6,0.8-5.2-1.6-7.5C148.9,453.9,145.3,453.5,143.7,455.5z M129.9,437.7c-1.9,1.2-1.9,4.4,0,7.1s5.2,4,6.8,2.8
c1.9-1.6,1.9-4.7,0-7.5C135,437.3,131.9,436.1,129.9,437.7z"
    />
  </svg>